<svg width="25" height="25" viewBox="0 0 25 25" fill="none" xmlns="http://www.w3.org/2000/svg">
<path d="M11.2158 17.2796C11.0845 17.2798 10.9545 17.2542 10.8332 17.2041C10.7119 17.154 10.6016 17.0804 10.5088 16.9876L6.2668 12.7446C6.17123 12.6524 6.09497 12.5421 6.04248 12.4201C5.98998 12.2982 5.9623 12.167 5.96106 12.0342C5.95981 11.9014 5.98502 11.7697 6.03521 11.6468C6.08541 11.5238 6.15958 11.4121 6.25341 11.3182C6.34723 11.2242 6.45883 11.1499 6.58169 11.0995C6.70455 11.0492 6.83621 11.0238 6.96899 11.0248C7.10177 11.0259 7.23301 11.0534 7.35505 11.1057C7.47709 11.158 7.58749 11.2341 7.6798 11.3296L11.2148 14.8646L17.5798 8.50156C17.7673 8.31392 18.0217 8.20845 18.2869 8.20836C18.5522 8.20827 18.8067 8.31355 18.9943 8.50106C19.1819 8.68857 19.2874 8.94294 19.2875 9.20821C19.2876 9.47348 19.1823 9.72792 18.9948 9.91556L11.9228 16.9876C11.83 17.0804 11.7197 17.154 11.5984 17.2041C11.4771 17.2542 11.3471 17.2798 11.2158 17.2796Z" fill="#2FAB73"/>
</svg>
