<svg width="25" height="25" viewBox="0 0 25 25" fill="none" xmlns="http://www.w3.org/2000/svg">
<path d="M11.2157 17.2796C11.0845 17.2798 10.9544 17.2542 10.8331 17.2041C10.7118 17.154 10.6016 17.0804 10.5087 16.9876L6.26674 12.7446C6.17117 12.6524 6.09491 12.5421 6.04241 12.4201C5.98992 12.2982 5.96224 12.167 5.961 12.0342C5.95975 11.9014 5.98496 11.7697 6.03515 11.6468C6.08535 11.5238 6.15952 11.4121 6.25335 11.3182C6.34717 11.2242 6.45877 11.1499 6.58163 11.0995C6.70449 11.0492 6.83615 11.0238 6.96893 11.0248C7.10171 11.0259 7.23294 11.0534 7.35499 11.1057C7.47703 11.158 7.58742 11.2341 7.67974 11.3296L11.2147 14.8646L17.5797 8.50156C17.7672 8.31392 18.0216 8.20845 18.2869 8.20836C18.5522 8.20827 18.8066 8.31355 18.9942 8.50106C19.1819 8.68857 19.2873 8.94294 19.2874 9.20821C19.2875 9.47348 19.1822 9.72792 18.9947 9.91556L11.9227 16.9876C11.8299 17.0804 11.7197 17.154 11.5984 17.2041C11.477 17.2542 11.347 17.2798 11.2157 17.2796Z" fill="#2FAB73"/>
</svg>
