<svg width="25" height="25" viewBox="0 0 25 25" fill="none" xmlns="http://www.w3.org/2000/svg">
<path d="M11.3542 17.2796C11.2229 17.2798 11.0929 17.2542 10.9716 17.2041C10.8503 17.154 10.74 17.0804 10.6472 16.9876L6.40521 12.7446C6.30964 12.6524 6.23338 12.5421 6.18089 12.4201C6.12839 12.2982 6.10072 12.167 6.09947 12.0342C6.09822 11.9014 6.12343 11.7697 6.17363 11.6468C6.22382 11.5238 6.29799 11.4121 6.39182 11.3182C6.48565 11.2242 6.59724 11.1499 6.7201 11.0995C6.84296 11.0492 6.97462 11.0238 7.1074 11.0248C7.24018 11.0259 7.37142 11.0534 7.49346 11.1057C7.6155 11.158 7.7259 11.2341 7.81821 11.3296L11.3532 14.8646L17.7182 8.50156C17.9057 8.31392 18.1601 8.20845 18.4254 8.20836C18.6906 8.20827 18.9451 8.31355 19.1327 8.50106C19.3204 8.68857 19.4258 8.94294 19.4259 9.20821C19.426 9.47348 19.3207 9.72792 19.1332 9.91556L12.0612 16.9876C11.9684 17.0804 11.8582 17.154 11.7368 17.2041C11.6155 17.2542 11.4855 17.2798 11.3542 17.2796Z" fill="#2FAB73"/>
</svg>
